# xmcd CD database file
#
# Track frame offsets:
#	160
#	22812
#	45022
#	64372
#	79900
#	97577
#	114500
#	142000
#	153045
#	168192
#	187417
#	202447
#	217637
#	234245
#	251050
#
# Disc length: 3732 seconds
#
# Revision: 4
# Processed by: cddbd v1.4PL0 Copyright (c) Steve Scherf et al.
# Submitted via: CDex 1.50
#
DISCID=bf0e920f
DTITLE=Kukuruza - Endless Story
DYEAR=1996
DGENRE=Bluegrass
TTITLE0=Old Cabby's Song
TTITLE1=Tayna
TTITLE2=Za kamen'
TTITLE3=Hey, Good Lookin'
TTITLE4=Znat', poznat' bi gde
TTITLE5=Staren'kaya skripka
TTITLE6=Iskhodila mladeshenka
TTITLE7=Red-Haired Boy
TTITLE8=It Doesn't Matter Anymore
TTITLE9=That's What I Like About You
TTITLE10=Crazy
TTITLE11=Peyzazh
TTITLE12=Susheniy Fig
TTITLE13=Those Memories Of You
TTITLE14=Bird On The Wire
EXTD=YEAR: 1996
EXTT0=
EXTT1=
EXTT2=
EXTT3=
EXTT4=
EXTT5=
EXTT6=
EXTT7=
EXTT8=
EXTT9=
EXTT10=
EXTT11=
EXTT12=
EXTT13=
EXTT14=
PLAYORDER=
